# xmcd
#
# Track frame offsets:
#	182
#	12142
#	22280
#	36012
#	46657
#	58605
#	67600
#	76037
#	88482
#	100432
#	110535
#	124037
#	135477
#	146110
#	159560
#	171440
#
# Disc length: 2432 seconds
#
# Revision: 0
# Processed by: cddbd v1.4PL0 Copyright (c) Steve Scherf et al.
# Submitted via: audiograbber 1.80
#
DISCID=d3097e10
DTITLE=Various Artist - Best Of Country Vol. 1
DYEAR=1900
DGENRE=
TTITLE0=Johnny Cash - Ring Of Fire
TTITLE1=Don Gibson - Oh, Lonesome Me
TTITLE2=Lynn Anderson - Rose Garden
TTITLE3=The Everly Brothers - All I Have To Do Is Dream
TTITLE4=Tennessee Ernie Ford - Sixteen Tons
TTITLE5=Elvis Presley - All Shook Up
TTITLE6=Roger Miller - Dang Me
TTITLE7=Hank Williams - Love Sick Blues
TTITLE8=Kitty Wells - Heartbreak U.S.A.
TTITLE9=George Hamilton IV. - Abilene
TTITLE10=Bobby Helms - My Special Angel
TTITLE11=Sonny James - Young Love
TTITLE12=Buck Owens - Act Naturally
TTITLE13=Hank Locklin - Please Help Me, I'm Falling
TTITLE14=Porter Wagoner - Misery LovesCompany
TTITLE15=Marty Robbins - Singing The Blues
EXTD=
EXTT0=
EXTT1=
EXTT2=
EXTT3=
EXTT4=
EXTT5=
EXTT6=
EXTT7=
EXTT8=
EXTT9=
EXTT10=
EXTT11=
EXTT12=
EXTT13=
EXTT14=
EXTT15=
PLAYORDER=
